<svg width="70" height="40" viewBox="0 0 70 40" fill="none" xmlns="http://www.w3.org/2000/svg">
<rect width="70" height="40" fill="white"/>
<path d="M19.1349 12.5785C18.549 13.254 17.6115 13.7869 16.674 13.7108C16.5568 12.7973 17.0158 11.8268 17.5529 11.2274C18.1388 10.5328 19.1642 10.0381 19.9943 10C20.0919 10.9515 19.7111 11.8839 19.1349 12.5785ZM19.9845 13.8915C18.6271 13.8154 17.465 14.6432 16.8204 14.6432C16.1661 14.6432 15.1798 13.9296 14.1056 13.9486C12.7091 13.9676 11.4103 14.7383 10.6974 15.9657C9.23255 18.4206 10.3165 22.0552 11.7326 24.0533C12.4259 25.0428 13.256 26.1275 14.3497 26.0894C15.3849 26.0514 15.7951 25.4329 17.0451 25.4329C18.3048 25.4329 18.6661 26.0894 19.7599 26.0704C20.8927 26.0514 21.6056 25.0809 22.299 24.0913C23.09 22.9686 23.4122 21.8744 23.4318 21.8173C23.4122 21.7983 21.2443 20.9895 21.2247 18.5538C21.2052 16.5176 22.9337 15.5471 23.0119 15.49C22.0353 14.0818 20.5119 13.9296 19.9845 13.8915ZM27.8263 11.1323V25.9657H30.1896V20.8944H33.4611C36.4494 20.8944 38.549 18.8963 38.549 16.0038C38.549 13.1113 36.4884 11.1323 33.5392 11.1323H27.8263ZM30.1896 13.0733H32.9142C34.965 13.0733 36.1369 14.1389 36.1369 16.0133C36.1369 17.8877 34.965 18.9629 32.9044 18.9629H30.1896V13.0733ZM42.8654 26.0799C44.3497 26.0799 45.7267 25.3473 46.3517 24.1865H46.4005V25.9657H48.588V18.5823C48.588 16.4415 46.8302 15.0618 44.1251 15.0618C41.6154 15.0618 39.7599 16.4605 39.6915 18.3825H41.8204C41.9962 17.4691 42.8654 16.8696 44.0568 16.8696C45.5021 16.8696 46.3126 17.5262 46.3126 18.7345V19.5528L43.3634 19.7241C40.6193 19.8858 39.1349 20.98 39.1349 22.883C39.1349 24.8049 40.6681 26.0799 42.8654 26.0799ZM43.5001 24.3197C42.2404 24.3197 41.4396 23.7298 41.4396 22.8259C41.4396 21.8934 42.2111 21.3511 43.6857 21.2655L46.3126 21.1037V21.941C46.3126 23.3302 45.1017 24.3197 43.5001 24.3197ZM51.5079 30C53.8126 30 54.8966 29.1437 55.8439 26.5461L59.9943 15.2046H57.5919L54.8087 23.9677H54.7599L51.9767 15.2046H49.506L53.5099 26.0038L53.2951 26.6603C52.9337 27.7736 52.3478 28.2017 51.3029 28.2017C51.1173 28.2017 50.756 28.1827 50.6095 28.1637V29.9429C50.7462 29.981 51.3322 30 51.5079 30Z" fill="black"/>
</svg>
