<svg width="70" height="40" viewBox="0 0 70 40" fill="none" xmlns="http://www.w3.org/2000/svg">
<rect width="70" height="40" fill="white"/>
<path d="M33.5009 20.7831V27.2499H31.4531V11.276H36.8814C38.1909 11.2481 39.4562 11.7462 40.3966 12.6588C41.3485 13.5178 41.8848 14.7469 41.8639 16.0296C41.8918 17.3215 41.3554 18.56 40.3966 19.4213C39.4469 20.3292 38.2745 20.7831 36.8814 20.7808L33.5009 20.7831ZM33.5009 13.2431V18.8207H36.9325C37.694 18.844 38.4277 18.5437 38.9571 17.9943C40.032 16.9467 40.0576 15.2218 39.0105 14.144C38.9919 14.1253 38.9756 14.1067 38.9571 14.0904C38.4347 13.5294 37.6963 13.2221 36.9325 13.2431H33.5009ZM46.5817 15.9644C48.0955 15.9644 49.2889 16.3694 50.1642 17.1795C51.0395 17.9896 51.476 19.1024 51.476 20.5131V27.2499H49.5188V25.7322H49.4305C48.5831 26.9822 47.4547 27.6061 46.0477 27.6061C44.8474 27.6061 43.842 27.2499 43.0341 26.5353C42.2493 25.8718 41.8035 24.8895 41.8221 23.8582C41.8221 22.7269 42.2493 21.8283 43.1014 21.1602C43.9535 20.4921 45.0912 20.1569 46.5167 20.1569C47.731 20.1569 48.734 20.3804 49.5188 20.825V20.3548C49.5234 19.6517 49.2123 18.986 48.6736 18.539C48.1327 18.0502 47.4268 17.7824 46.6978 17.7918C45.5555 17.7918 44.65 18.276 43.9837 19.242L42.182 18.1037C43.1711 16.6767 44.6384 15.9644 46.5817 15.9644ZM43.9326 23.9048C43.9303 24.4355 44.1833 24.9337 44.6105 25.2433C45.0633 25.5995 45.6252 25.7904 46.201 25.7787C47.0646 25.7764 47.8935 25.4319 48.5041 24.8196C49.1821 24.1795 49.5211 23.4299 49.5211 22.5662C48.8826 22.0564 47.9934 21.8004 46.851 21.8004C46.0199 21.8004 45.3257 22.0006 44.7707 22.4033C44.2112 22.813 43.9326 23.3088 43.9326 23.9048ZM62.7133 16.3205L55.8804 32.0687H53.7676L56.3029 26.5586L51.808 16.3205H54.0323L57.2804 24.1725H57.3245L60.4844 16.3205H62.7133Z" fill="black"/>
<path d="M25.2287 19.3865C25.2287 18.7603 25.1776 18.1364 25.0708 17.5195H16.4385V21.0533H21.3815C21.1772 22.1939 20.5178 23.2019 19.5543 23.8421V26.1374H22.5052C24.2326 24.5428 25.2287 22.18 25.2287 19.3865Z" fill="#4285F4"/>
<path d="M16.4385 28.3559C18.9088 28.3559 20.9891 27.5434 22.5052 26.1397L19.5543 23.8444C18.7324 24.4031 17.676 24.722 16.4385 24.722C14.0517 24.722 12.0248 23.1088 11.3004 20.9346H8.26123V23.2997C9.81449 26.4004 12.9791 28.3559 16.4385 28.3559Z" fill="#34A853"/>
<path d="M11.3005 20.9345C10.9174 19.7962 10.9174 18.5601 11.3005 17.4218V15.0566H8.26127C6.96109 17.6499 6.96109 20.7064 8.26127 23.2997L11.3005 20.9345Z" fill="#FBBC04"/>
<path d="M16.4385 13.6344C17.7433 13.6134 19.004 14.1069 19.949 15.0102L22.5633 12.3913C20.9055 10.8316 18.7115 9.97495 16.4385 10.0006C12.9791 10.0006 9.81449 11.9583 8.26123 15.0567L11.3004 17.4218C12.0248 15.2476 14.0517 13.6344 16.4385 13.6344Z" fill="#EA4335"/>
</svg>
