<svg width="70" height="40" viewBox="0 0 70 40" fill="none" xmlns="http://www.w3.org/2000/svg">
<rect width="70" height="40" fill="white"/>
<path fill-rule="evenodd" clip-rule="evenodd" d="M17.8034 14.4229H14.1763C13.9281 14.4229 13.717 14.6009 13.6783 14.8427L12.2113 24.0238C12.1822 24.2049 12.3243 24.3683 12.5104 24.3683H14.2421C14.4903 24.3683 14.7013 24.1903 14.7401 23.9479L15.1357 21.4716C15.1739 21.2292 15.3855 21.0512 15.6332 21.0512H16.7814C19.1706 21.0512 20.5496 19.9099 20.9097 17.6483C21.072 16.6588 20.9166 15.8814 20.4472 15.3369C19.9317 14.7391 19.0174 14.4229 17.8034 14.4229ZM18.2218 17.776C18.0235 19.0608 17.0291 19.0608 16.0675 19.0608H15.5202L15.9042 16.6614C15.927 16.5164 16.0543 16.4096 16.2028 16.4096H16.4536C17.1086 16.4096 17.7265 16.4096 18.0458 16.7782C18.2362 16.9981 18.2945 17.3248 18.2218 17.776Z" fill="black"/>
<path fill-rule="evenodd" clip-rule="evenodd" d="M28.6454 17.735H26.9084C26.7605 17.735 26.6327 17.8418 26.6099 17.9868L26.533 18.4663L26.4115 18.2925C26.0355 17.7538 25.197 17.5737 24.3601 17.5737C22.4407 17.5737 20.8014 19.0087 20.4821 21.0217C20.3161 22.0258 20.5521 22.9859 21.1292 23.6555C21.6585 24.2712 22.4158 24.5277 23.3169 24.5277C24.8634 24.5277 25.721 23.5461 25.721 23.5461L25.6435 24.0225C25.6144 24.2047 25.7565 24.368 25.9416 24.368H27.5062C27.7549 24.368 27.9649 24.19 28.0042 23.9477L28.9429 18.0795C28.9726 17.8988 28.831 17.735 28.6454 17.735ZM26.2243 21.0719C26.0567 22.0514 25.2691 22.709 24.2646 22.709C23.7603 22.709 23.3572 22.5493 23.0984 22.2467C22.8417 21.9462 22.7441 21.5185 22.8258 21.0421C22.9822 20.0709 23.7831 19.3919 24.7722 19.3919C25.2654 19.3919 25.6664 19.5537 25.9305 19.8589C26.1951 20.1673 26.3001 20.5976 26.2243 21.0719Z" fill="black"/>
<path fill-rule="evenodd" clip-rule="evenodd" d="M37.8957 17.7349H36.1503C35.9838 17.7349 35.8273 17.8165 35.7329 17.9532L33.3256 21.4535L32.3052 18.0898C32.2411 17.8794 32.0443 17.7349 31.8215 17.7349H30.1064C29.898 17.7349 29.7532 17.9359 29.8195 18.1296L31.742 23.6989L29.9345 26.2176C29.7924 26.416 29.9356 26.6887 30.1812 26.6887H31.9244C32.0899 26.6887 32.2448 26.6091 32.3386 26.4751L38.1439 18.2034C38.2829 18.0055 38.1402 17.7349 37.8957 17.7349Z" fill="black"/>
<path fill-rule="evenodd" clip-rule="evenodd" d="M43.6745 14.4233H40.0469C39.7992 14.4233 39.5881 14.6013 39.5494 14.8432L38.0824 24.0243C38.0533 24.2054 38.1954 24.3688 38.3805 24.3688H40.242C40.4149 24.3688 40.5629 24.2442 40.5899 24.0745L41.0063 21.4721C41.0445 21.2297 41.2561 21.0517 41.5037 21.0517H42.6514C45.0412 21.0517 46.4196 19.9104 46.7802 17.6488C46.9431 16.6593 46.7866 15.8819 46.3172 15.3374C45.8023 14.7395 44.8885 14.4233 43.6745 14.4233ZM44.0929 17.7765C43.8951 19.0613 42.9007 19.0613 41.9386 19.0613H41.3918L41.7763 16.6619C41.7991 16.5169 41.9254 16.4101 42.0744 16.4101H42.3253C42.9797 16.4101 43.5981 16.4101 43.9174 16.7787C44.1078 16.9986 44.1656 17.3252 44.0929 17.7765Z" fill="black"/>
<path fill-rule="evenodd" clip-rule="evenodd" d="M54.5161 17.735H52.7803C52.6313 17.735 52.5045 17.8418 52.4822 17.9868L52.4053 18.4663L52.2833 18.2925C51.9073 17.7538 51.0694 17.5737 50.2325 17.5737C48.3131 17.5737 46.6743 19.0087 46.355 21.0217C46.1896 22.0258 46.4245 22.9859 47.0015 23.6555C47.5319 24.2712 48.2882 24.5277 49.1893 24.5277C50.7358 24.5277 51.5933 23.5461 51.5933 23.5461L51.5159 24.0225C51.4867 24.2047 51.6289 24.368 51.815 24.368H53.3791C53.6267 24.368 53.8378 24.19 53.8765 23.9477L54.8158 18.0795C54.8444 17.8988 54.7023 17.735 54.5161 17.735ZM52.0951 21.0719C51.9285 22.0514 51.1399 22.709 50.1354 22.709C49.6321 22.709 49.228 22.5493 48.9692 22.2467C48.7125 21.9462 48.6159 21.5185 48.6966 21.0421C48.8541 20.0709 49.6538 19.3919 50.6429 19.3919C51.1362 19.3919 51.5371 19.5537 51.8012 19.8589C52.067 20.1673 52.172 20.5976 52.0951 21.0719Z" fill="black"/>
<path fill-rule="evenodd" clip-rule="evenodd" d="M56.5638 14.6752L55.0751 24.0243C55.0459 24.2055 55.1881 24.3688 55.3732 24.3688H56.8698C57.1186 24.3688 57.3296 24.1908 57.3678 23.9484L58.8358 14.7679C58.865 14.5867 58.7229 14.4229 58.5378 14.4229H56.8619C56.7139 14.4234 56.5866 14.5302 56.5638 14.6752Z" fill="black"/>
</svg>
