<svg width="70" height="40" viewBox="0 0 70 40" fill="none" xmlns="http://www.w3.org/2000/svg">
<rect width="70" height="40" fill="white"/>
<path fill-rule="evenodd" clip-rule="evenodd" d="M59.5834 20.2304C59.5834 16.8467 57.9444 14.1768 54.8118 14.1768C51.666 14.1768 49.7627 16.8467 49.7627 20.204C49.7627 24.1825 52.0097 26.1916 55.2348 26.1916C56.8077 26.1916 57.9973 25.8347 58.8961 25.3324V22.6889C57.9973 23.1383 56.9663 23.4159 55.6577 23.4159C54.3756 23.4159 53.2389 22.9665 53.0935 21.4068H59.5569C59.5569 21.235 59.5834 20.5476 59.5834 20.2304ZM53.0539 18.9748C53.0539 17.4812 53.9659 16.8599 54.7986 16.8599C55.6049 16.8599 56.464 17.4812 56.464 18.9748H53.0539Z" fill="black"/>
<path fill-rule="evenodd" clip-rule="evenodd" d="M44.6606 14.1768C43.3653 14.1768 42.5326 14.7848 42.0699 15.2077L41.8981 14.3882H38.9902V29.8L42.2946 29.0994L42.3079 25.3589C42.7837 25.7025 43.4842 26.1916 44.6474 26.1916C47.0133 26.1916 49.1678 24.2882 49.1678 20.0983C49.1546 16.2651 46.9737 14.1768 44.6606 14.1768ZM43.8675 23.2837C43.0877 23.2837 42.6251 23.0061 42.3079 22.6625L42.2946 17.7587C42.6383 17.3754 43.1141 17.1111 43.8675 17.1111C45.0703 17.1111 45.903 18.4593 45.903 20.1908C45.903 21.9619 45.0836 23.2837 43.8675 23.2837Z" fill="black"/>
<path fill-rule="evenodd" clip-rule="evenodd" d="M37.761 12.6832V10L34.4434 10.7005V13.3969L37.761 12.6832Z" fill="black"/>
<path d="M37.761 14.4014H34.4434V25.9668H37.761V14.4014Z" fill="black"/>
<path fill-rule="evenodd" clip-rule="evenodd" d="M30.8883 15.3794L30.6768 14.4013H27.8218V25.9667H31.1262V18.1286C31.906 17.1109 33.2278 17.2959 33.6375 17.4413V14.4013C33.2146 14.2427 31.6681 13.9519 30.8883 15.3794Z" fill="black"/>
<path fill-rule="evenodd" clip-rule="evenodd" d="M24.2788 11.5332L21.0537 12.2205L21.0405 22.8078C21.0405 24.764 22.5077 26.2048 24.4639 26.2048C25.5477 26.2048 26.3408 26.0065 26.777 25.7686V23.0854C26.354 23.2572 24.2656 23.8652 24.2656 21.909V17.2168H26.777V14.4014H24.2656L24.2788 11.5332Z" fill="black"/>
<path fill-rule="evenodd" clip-rule="evenodd" d="M15.3441 17.7587C15.3441 17.2432 15.767 17.045 16.4676 17.045C17.4721 17.045 18.741 17.349 19.7455 17.8909V14.7848C18.6485 14.3486 17.5646 14.1768 16.4676 14.1768C13.7844 14.1768 12 15.5778 12 17.9173C12 21.5654 17.0227 20.9838 17.0227 22.5567C17.0227 23.1647 16.494 23.363 15.7538 23.363C14.6567 23.363 13.2557 22.9136 12.1454 22.3056V25.4514C13.3746 25.9801 14.6171 26.2048 15.7538 26.2048C18.5031 26.2048 20.3932 24.8434 20.3932 22.4774C20.38 18.5386 15.3441 19.2391 15.3441 17.7587Z" fill="black"/>
</svg>
